<?xml version="1.0" encoding="UTF-8" standalone="no"?>
<!DOCTYPE svg PUBLIC "-//W3C//DTD SVG 1.1//EN"
 "http://www.w3.org/Graphics/SVG/1.1/DTD/svg11.dtd">
<!-- Generated by graphviz version 2.38.0 (20140413.2041)
 -->
<!-- Title: %3 Pages: 1 -->
<svg width="151pt" height="141pt"
 viewBox="0.00 0.00 151.00 141.00" xmlns="http://www.w3.org/2000/svg" xmlns:xlink="http://www.w3.org/1999/xlink">
<g id="graph0" class="graph" transform="scale(1 1) rotate(0) translate(4 137)">
<title>%3</title>
<polygon fill="white" stroke="none" points="-4,4 -4,-137 147,-137 147,4 -4,4"/>
<!-- LaneDetector::ProcessLanes:/home/mporter/src/ldws/ldws -->
<g id="node1" class="node"><title>LaneDetector::ProcessLanes:/home/mporter/src/ldws/ldws</title>
<polygon fill="#0d1a77" stroke="#0d1a77" points="143,-52 0,-52 0,-0 143,-0 143,-52"/>
<text text-anchor="middle" x="71.5" y="-40" font-family="Arial" font-size="10.00" fill="#ffffff">ldws</text>
<text text-anchor="middle" x="71.5" y="-29" font-family="Arial" font-size="10.00" fill="#ffffff">LaneDetector::ProcessLanes</text>
<text text-anchor="middle" x="71.5" y="-18" font-family="Arial" font-size="10.00" fill="#ffffff">3.22%</text>
<text text-anchor="middle" x="71.5" y="-7" font-family="Arial" font-size="10.00" fill="#ffffff">(0.01%)</text>
</g>
<!-- main:/home/mporter/src/ldws/ldws -->
<g id="node2" class="node"><title>main:/home/mporter/src/ldws/ldws</title>
<polygon fill="#0d3f81" stroke="#0d3f81" points="96.5,-133 46.5,-133 46.5,-81 96.5,-81 96.5,-133"/>
<text text-anchor="middle" x="71.5" y="-121" font-family="Arial" font-size="10.00" fill="#ffffff">ldws</text>
<text text-anchor="middle" x="71.5" y="-110" font-family="Arial" font-size="10.00" fill="#ffffff">main</text>
<text text-anchor="middle" x="71.5" y="-99" font-family="Arial" font-size="10.00" fill="#ffffff">10.90%</text>
<text text-anchor="middle" x="71.5" y="-88" font-family="Arial" font-size="10.00" fill="#ffffff">(0.01%)</text>
</g>
<!-- main:/home/mporter/src/ldws/ldws&#45;&gt;LaneDetector::ProcessLanes:/home/mporter/src/ldws/ldws -->
<g id="edge1" class="edge"><title>main:/home/mporter/src/ldws/ldws&#45;&gt;LaneDetector::ProcessLanes:/home/mporter/src/ldws/ldws</title>
<path fill="none" stroke="#0d1a77" stroke-width="0.5" d="M71.5,-80.5691C71.5,-72.739 71.5,-64.0604 71.5,-56.0089"/>
<polygon fill="#0d1a77" stroke="#0d1a77" stroke-width="0.5" points="72.7251,-55.6131 71.5,-52.1131 70.2751,-55.6132 72.7251,-55.6131"/>
<text text-anchor="middle" x="85.5" y="-64" font-family="Arial" font-size="10.00" fill="#0d1a77">3.22%</text>
</g>
</g>
</svg>
